HIERARCHY
ROOT Hips
{
     OFFSET 21.40860 98.03510 45.86580
     CHANNELS 6 Xposition Yposition Zposition Zrotation Xrotation Yrotation
     JOINT Spine
     {
          OFFSET -0.00000 11.89050 0.00000
          CHANNELS 3 Zrotation Xrotation Yrotation
          JOINT Spine1
          {
               OFFSET -0.00000 25.65740 0.12766
               CHANNELS 3 Zrotation Xrotation Yrotation
               JOINT HEad
               {
                    OFFSET 0.00000 8.73416 0.01134
                    CHANNELS 3 Zrotation Xrotation Yrotation
                    End Site
                    {
                         OFFSET -0.29000 12.77420 2.51395
                    }
               }
               JOINT LeftShoulder1
               {
                    OFFSET 8.99000 -0.36225 -0.22000
                    CHANNELS 3 Zrotation Xrotation Yrotation
                    JOINT LeftArm
                    {
                         OFFSET 10.28270 -0.00338 0.32212
                         CHANNELS 3 Zrotation Xrotation Yrotation
                         JOINT LeftForeArm
                         {
                              OFFSET 32.76690 0.09914 -1.42434
                              CHANNELS 3 Zrotation Xrotation Yrotation
                              JOINT LeftHand
                              {
                                   OFFSET 27.56430 0.08536 1.02216
                                   CHANNELS 3 Zrotation Xrotation Yrotation
                                   End Site
                                   {
                                        OFFSET 16.74430 -0.60000 1.50291
                                   }
                              }
                         }
                    }
               }
               JOINT RightShoulder
               {
                    OFFSET -8.99000 -0.36225 -0.22000
                    CHANNELS 3 Zrotation Xrotation Yrotation
                    JOINT RightArm
                    {
                         OFFSET -10.28270 -0.00338 0.32212
                         CHANNELS 3 Zrotation Xrotation Yrotation
                         JOINT RightForeArm
                         {
                              OFFSET -32.89710 0.09914 -1.42434
                              CHANNELS 3 Zrotation Xrotation Yrotation
                              JOINT RightHand
                              {
                                   OFFSET -27.49210 0.08536 1.02216
                                   CHANNELS 3 Zrotation Xrotation Yrotation
                                   End Site
                                   {
                                        OFFSET -16.63120 -0.60000 1.50291
                                   }
                              }
                         }
                    }
               }
          }
     }
     JOINT LeftUpLeg
     {
          OFFSET 8.94580 -8.66707 0.10165
          CHANNELS 3 Zrotation Xrotation Yrotation
          JOINT LeftLeg
          {
               OFFSET -0.00000 -44.42270 1.37270
               CHANNELS 3 Zrotation Xrotation Yrotation
               JOINT LeftFoot
               {
                    OFFSET -0.25355 -42.09240 -1.46059
                    CHANNELS 3 Zrotation Xrotation Yrotation
                    JOINT LeftToes
                    {
                         OFFSET -0.04000 -4.41509 8.49910
                         CHANNELS 3 Zrotation Xrotation Yrotation
                         End Site
                         {
                              OFFSET 0.08000 -0.04745 9.77979
                         }
                    }
               }
          }
     }
     JOINT RightUpLeg
     {
          OFFSET -8.94580 -8.66707 0.10165
          CHANNELS 3 Zrotation Xrotation Yrotation
          JOINT RightLeg
          {
               OFFSET -0.00000 -44.42270 1.37270
               CHANNELS 3 Zrotation Xrotation Yrotation
               JOINT RightFoot
               {
                    OFFSET 0.25355 -42.09240 -1.46059
                    CHANNELS 3 Zrotation Xrotation Yrotation
                    JOINT RightToes
                    {
                         OFFSET 0.04000 -4.41509 8.49910
                         CHANNELS 3 Zrotation Xrotation Yrotation
                         End Site
                         {
                              OFFSET -0.08000 -0.13745 9.77979
                         }
                    }
               }
          }
     }
}
MOTION
Frames: 7
Frame Time: 0.01667
88.85940 101.26500 60.58210 -2.69841 -1.86435 -10.50410 3.25913 5.19719 -1.42258 3.86659 10.38100 -2.74834 2.14341 -23.85040 4.34905 -0.00000 -0.00000 0.00000 -93.02450 -36.35990 -77.29560 -32.89590 44.26520 -84.86790 9.93414 8.62381 -11.59190 18.41820 -0.11229 -3.00892 65.65210 -12.09370 67.98890 31.96360 31.13070 83.90950 -8.16837 8.72634 13.82820 0.56374 -11.44830 -14.29910 6.87519 14.05080 -15.98970 1.84405 -4.50505 -0.03940 -3.02256 2.96209 10.18220 -1.49140 -3.52756 -24.01180 -9.75774 14.72070 19.90120 2.36191 -8.14055 -0.16493 0.97352 -12.45630 3.34648 
89.44490 101.32500 60.66880 -2.61402 -1.62232 -11.69210 3.06115 5.27386 -1.55970 3.68515 10.51090 -3.04857 2.80247 -23.37220 5.06595 -0.00000 -0.00000 0.00000 -95.07970 -37.10300 -78.75570 -32.80390 44.97620 -84.13490 10.52860 8.52709 -11.75430 18.84730 0.01554 -2.38062 64.62500 -10.06170 67.95190 31.44950 31.13750 85.10450 -8.94602 8.55826 14.44140 0.52504 -11.44570 -13.74210 6.54007 13.77000 -15.30880 2.32448 -4.31784 -0.05764 -3.10365 3.21297 10.20550 -1.68804 -3.77927 -24.20610 -10.14350 13.94500 21.49910 2.69511 -7.50590 -0.17439 1.00792 -12.71770 3.15554 
90.05500 101.38400 60.77670 -2.57802 -1.34749 -13.12360 2.85459 5.30764 -1.60663 3.53518 10.55700 -3.17160 3.18591 -22.42680 5.71979 -0.00000 -0.00000 0.00000 -97.05350 -38.05620 -80.35830 -33.31990 45.56570 -82.83770 11.21990 8.38982 -12.18570 19.18840 0.17342 -1.63470 63.46640 -8.34719 67.90970 31.36320 30.92340 85.76360 -9.58320 8.39676 15.16240 0.60341 -11.39760 -13.51530 6.02946 13.44150 -14.01240 3.15399 -3.90043 -0.09599 -2.98113 2.92867 10.05170 -1.80309 -3.97797 -24.39810 -10.48950 12.89580 23.38230 3.12205 -6.87636 -0.18810 1.03149 -12.85300 2.85962 
90.67910 101.43600 60.90160 -2.58795 -1.03880 -14.77050 2.65704 5.33472 -1.56188 3.48013 10.59050 -3.11755 3.15824 -21.12840 6.40296 -0.00000 -0.00000 0.00000 -99.30050 -39.10020 -82.31020 -34.79350 45.95980 -80.82970 11.61660 8.27424 -12.78930 19.14070 0.31933 -0.95149 62.52270 -6.80312 68.09340 31.59830 30.58380 85.85070 -10.09160 8.24351 15.95630 0.78794 -11.33890 -13.59650 5.37064 13.12690 -12.17810 4.29532 -3.34547 -0.15784 -2.72224 2.23322 9.83675 -1.82312 -4.13129 -24.62740 -10.79700 11.59950 25.39310 3.65604 -6.25998 -0.20751 1.05796 -12.99210 2.45461 
91.29890 101.48100 61.03270 -2.62136 -0.71629 -16.55000 2.47747 5.38687 -1.44687 3.53222 10.67660 -2.92740 2.75298 -19.68690 7.16896 -0.00000 -0.00000 0.00000 -101.98500 -40.06570 -84.67750 -37.15020 46.13530 -78.25860 11.67900 8.19777 -13.48030 18.59010 0.42158 -0.44120 61.97750 -5.35615 68.64610 31.96030 30.18210 85.44860 -10.50520 8.10338 16.71530 1.03414 -11.31500 -13.92320 4.62550 12.91910 -10.00900 5.45218 -2.87594 -0.22685 -2.50395 1.53942 9.78816 -1.76989 -4.24737 -24.94290 -11.07110 10.17930 27.16580 4.31199 -5.73170 -0.23210 1.08287 -13.10750 1.98841 
91.89600 101.52300 61.15830 -2.64923 -0.41825 -18.34380 2.31644 5.46570 -1.30345 3.63857 10.82040 -2.67624 2.17001 -18.26720 7.98636 -0.00000 -0.00000 0.00000 -104.95900 -40.82600 -87.30370 -39.91470 46.19170 -75.48490 11.80140 8.09791 -14.30020 17.71450 0.48493 -0.07190 61.75940 -4.06480 69.51370 32.35250 29.76830 84.66760 -10.88200 7.97686 17.33770 1.27647 -11.35230 -14.39020 3.87501 12.88540 -7.73735 6.23471 -2.70042 -0.27035 -2.47173 1.26643 10.00720 -1.72378 -4.36164 -25.37120 -11.30710 8.93086 28.11280 5.14125 -5.47930 -0.25588 1.07154 -12.88630 1.66473 
92.45550 101.56900 61.27020 -2.65212 -0.18910 -20.02640 2.17346 5.55401 -1.17661 3.72365 10.98380 -2.44411 1.62240 -16.94150 8.78792 -0.00000 -0.00000 0.00000 -107.90600 -41.32080 -89.92570 -42.33310 46.27280 -73.02860 12.29140 7.91776 -15.26820 16.80490 0.53467 0.26026 61.68970 -3.03456 70.50730 32.77300 29.37540 83.60540 -11.27570 7.85549 17.82410 1.45152 -11.42000 -14.83720 3.21548 12.98820 -5.62135 6.41012 -2.88484 -0.26655 -2.66542 1.59972 10.41600 -1.81294 -4.53992 -25.90500 -11.49840 8.29537 27.58960 6.25524 -5.76275 -0.26357 0.96364 -11.78360 1.80246 
